<?xml version="1.0" encoding="UTF-8" standalone="no"?>
<!-- Created with Inkscape (http://www.inkscape.org/) -->

<svg
   width="64"
   height="64"
   viewBox="0 0 64 64"
   version="1.1"
   id="svg1"
   inkscape:version="1.3 (0e150ed6c4, 2023-07-21)"
   sodipodi:docname="logo.svg"
   xmlns:inkscape="http://www.inkscape.org/namespaces/inkscape"
   xmlns:sodipodi="http://sodipodi.sourceforge.net/DTD/sodipodi-0.dtd"
   xmlns="http://www.w3.org/2000/svg"
   xmlns:svg="http://www.w3.org/2000/svg">
  <sodipodi:namedview
     id="namedview1"
     pagecolor="#505050"
     bordercolor="#ffffff"
     borderopacity="1"
     inkscape:showpageshadow="0"
     inkscape:pageopacity="0"
     inkscape:pagecheckerboard="1"
     inkscape:deskcolor="#505050"
     inkscape:document-units="px"
     inkscape:zoom="4"
     inkscape:cx="30.75"
     inkscape:cy="27.875"
     inkscape:window-width="2146"
     inkscape:window-height="1237"
     inkscape:window-x="720"
     inkscape:window-y="399"
     inkscape:window-maximized="0"
     inkscape:current-layer="layer1"
     showguides="true" />
  <defs
     id="defs1" />
  <g
     inkscape:label="Layer 1"
     inkscape:groupmode="layer"
     id="layer1">
    <rect
       style="fill:none;stroke:#e51716;stroke-width:6.24285;stroke-dasharray:none;stroke-opacity:1"
       id="rect1"
       width="57.608284"
       height="57.757149"
       x="3.2702913"
       y="3.1214256" />
    <path
       style="font-size:341.333px;font-family:'Franklin Gothic Demi';-inkscape-font-specification:'Franklin Gothic Demi';fill:#e51716;fill-opacity:1;stroke-width:2.49709"
       d="m 10.084511,16.490775 h 7.946102 q 4.859122,0 7.241042,1.613413 2.381928,1.590686 4.268413,5.067485 1.886485,3.454071 1.886485,8.748791 0,6.658169 -3.296587,11.134828 -3.296579,4.453933 -9.089421,4.453933 h -8.956034 z m 5.983397,5.703755 v 19.474595 h 2.515307 q 3.334694,0 4.954404,-2.954146 1.61971,-2.976853 1.61971,-6.976305 0,-2.817791 -0.933712,-5.20383 Q 23.30895,24.126089 21.936961,23.171673 20.564983,22.19453 18.640383,22.19453 Z m 37.291396,1.113488 -5.183064,2.067894 q -1.048046,-3.681307 -4.439907,-3.681307 -3.620521,0 -3.620521,2.795064 0,1.113487 0.666938,1.886103 0.685989,0.772625 3.067918,1.340723 3.982578,0.954416 5.830947,1.931558 1.848371,0.977133 3.106025,3.158654 1.276715,2.158793 1.276715,4.840239 0,4.203969 -2.724924,7.271723 -2.705862,3.067763 -8.041374,3.067763 -4.001631,0 -6.821827,-2.158793 -2.801143,-2.181521 -3.69675,-6.453653 l 5.640403,-1.522522 q 0.952763,4.340313 5.297398,4.340313 2.096092,0 3.125076,-0.954415 1.028994,-0.977133 1.028994,-2.317866 0,-1.36344 -0.933712,-2.113338 -0.933712,-0.749897 -3.601468,-1.408896 -4.973456,-1.227104 -7.088611,-3.340453 -2.115145,-2.136066 -2.115145,-6.226417 0,-4.135787 2.515317,-6.976306 2.534359,-2.840518 6.859932,-2.840518 7.660265,0 9.85164,7.29445 z"
       id="text1"
       aria-label="DS" />
  </g>
</svg>
