<?xml version="1.0" encoding="UTF-8" standalone="no"?>
<!-- Created with Inkscape (http://www.inkscape.org/) -->

<svg
   width="64"
   height="64"
   viewBox="0 0 64 64"
   version="1.1"
   id="svg1"
   inkscape:version="1.3 (0e150ed6c4, 2023-07-21)"
   sodipodi:docname="logo.svg"
   xmlns:inkscape="http://www.inkscape.org/namespaces/inkscape"
   xmlns:sodipodi="http://sodipodi.sourceforge.net/DTD/sodipodi-0.dtd"
   xmlns="http://www.w3.org/2000/svg"
   xmlns:svg="http://www.w3.org/2000/svg">
  <sodipodi:namedview
     id="namedview1"
     pagecolor="#505050"
     bordercolor="#ffffff"
     borderopacity="1"
     inkscape:showpageshadow="0"
     inkscape:pageopacity="0"
     inkscape:pagecheckerboard="1"
     inkscape:deskcolor="#505050"
     inkscape:document-units="px"
     inkscape:zoom="5.6568542"
     inkscape:cx="24.395184"
     inkscape:cy="28.019106"
     inkscape:window-width="2146"
     inkscape:window-height="1237"
     inkscape:window-x="720"
     inkscape:window-y="399"
     inkscape:window-maximized="0"
     inkscape:current-layer="layer1"
     showguides="true" />
  <defs
     id="defs1" />
  <g
     inkscape:label="Layer 1"
     inkscape:groupmode="layer"
     id="layer1">
    <rect
       style="fill:none;stroke:#e51716;stroke-width:6.24285;stroke-dasharray:none;stroke-opacity:1"
       id="rect1"
       width="57.608284"
       height="57.757149"
       x="3.2702913"
       y="3.1214256" />
    <path
       style="font-size:341.333px;font-family:'Franklin Gothic Demi';-inkscape-font-specification:'Franklin Gothic Demi';fill:#e51716;fill-opacity:1;stroke-width:2.26544"
       d="m 10.010078,19.234771 h 7.946102 q 4.859122,0 7.241042,1.327957 2.381928,1.309252 4.268413,4.170911 1.886485,2.842954 1.886485,7.200897 0,5.480161 -3.296587,9.164779 -3.296579,3.665914 -9.089421,3.665914 h -8.956034 z m 5.983397,4.694609 v 16.029018 h 2.515307 q 3.334694,0 4.954404,-2.431479 1.61971,-2.450168 1.61971,-5.742009 0,-2.319249 -0.933712,-4.283135 Q 23.234517,25.519194 21.862528,24.733639 20.49055,23.92938 18.56595,23.92938 Z m 37.291396,0.916483 -5.183064,1.702027 q -1.048046,-3.029984 -4.439907,-3.029984 -3.620521,0 -3.620521,2.300541 0,0.916481 0.666938,1.552401 0.685989,0.635927 3.067918,1.103514 3.982578,0.785553 5.830947,1.589813 1.848371,0.804252 3.106025,2.599804 1.276715,1.776846 1.276715,3.983872 0,3.460174 -2.724924,5.98516 -2.705862,2.524993 -8.041374,2.524993 -4.001631,0 -6.821827,-1.776843 -2.801143,-1.795552 -3.69675,-5.31183 l 5.640403,-1.253147 q 0.952763,3.572396 5.297398,3.572396 2.096092,0 3.125076,-0.785554 1.028994,-0.804252 1.028994,-1.907775 0,-1.12221 -0.933712,-1.739431 -0.933712,-0.61722 -3.601468,-1.159625 -4.973456,-1.009996 -7.088611,-2.749437 -2.115145,-1.75814 -2.115145,-5.124797 0,-3.404055 2.515317,-5.742012 2.534359,-2.337953 6.859932,-2.337953 7.660265,0 9.85164,6.003867 z"
       id="text1"
       aria-label="DS" />
    <text
       xml:space="preserve"
       style="font-size:341.333px;font-family:'Franklin Gothic Demi';-inkscape-font-specification:'Franklin Gothic Demi';fill:#e51716;stroke:#e51716;stroke-width:20"
       x="16.067907"
       y="31.931828"
       id="text2"><tspan
         sodipodi:role="line"
         id="tspan1"></tspan></text>
  </g>
</svg>
