<?xml version="1.0" standalone="no"?>
<!DOCTYPE svg PUBLIC "-//W3C//DTD SVG 20010904//EN"
 "http://www.w3.org/TR/2001/REC-SVG-20010904/DTD/svg10.dtd">
<svg version="1.0" xmlns="http://www.w3.org/2000/svg"
 width="384.000000pt" height="384.000000pt" viewBox="0 0 384.000000 384.000000"
 preserveAspectRatio="xMidYMid meet">
<metadata>
Created by potrace 1.14, written by Peter Selinger 2001-2017
</metadata>
<g transform="translate(0.000000,384.000000) scale(0.100000,-0.100000)"
fill="#000000" stroke="none">
<path d="M0 1920 l0 -1920 1920 0 1920 0 0 1920 0 1920 -1920 0 -1920 0 0
-1920z m3620 10 l0 -1700 -1710 0 -1710 0 0 1700 0 1700 1710 0 1710 0 0
-1700z"/>
<path d="M540 1930 l0 -1360 1370 0 1370 0 0 1360 0 1360 -1370 0 -1370 0 0
-1360z m2342 516 c64 -12 158 -43 158 -51 0 -19 -110 -275 -118 -275 -2 0 -41
18 -85 40 -84 41 -177 60 -231 46 -65 -16 -88 -95 -41 -142 25 -25 49 -37 209
-105 215 -91 288 -183 288 -364 0 -139 -45 -231 -150 -309 -64 -46 -131 -72
-244 -91 -102 -18 -201 -10 -323 25 -73 22 -175 68 -175 80 0 8 13 43 74 202
12 31 25 60 28 64 4 3 47 -14 95 -39 116 -60 190 -80 266 -75 50 4 64 9 84 32
29 34 30 84 3 114 -24 26 -93 62 -182 96 -163 61 -248 127 -293 227 -65 147
-30 317 88 426 53 49 114 82 182 99 69 17 278 17 367 0z m-1317 -40 c231 -63
376 -187 431 -371 27 -88 25 -266 -3 -365 -30 -104 -65 -164 -147 -246 -76
-75 -149 -122 -243 -155 -119 -42 -191 -49 -479 -49 l-274 0 0 611 0 611 308
-5 c294 -4 311 -6 407 -31z"/>
<path d="M1208 1819 l-3 -382 100 6 c132 7 200 32 255 94 58 66 75 130 74 278
0 150 -23 227 -87 294 -67 69 -123 91 -239 91 l-98 0 -2 -381z"/>
</g>
</svg>
